<svg width="59" height="44" viewBox="0 0 59 44" fill="none" xmlns="http://www.w3.org/2000/svg">
<path d="M30.9792 38.02C27.8992 41.98 23.5392 43.96 17.8992 43.96C12.2592 43.96 7.89922 41.98 4.81922 38.02C1.73922 34.02 0.199219 28.68 0.199219 22C0.199219 15.32 1.73922 10 4.81922 6.04004C7.89922 2.04004 12.2592 0.0400391 17.8992 0.0400391C23.5392 0.0400391 27.8992 2.04004 30.9792 6.04004C34.0592 10 35.5992 15.32 35.5992 22C35.5992 28.68 34.0592 34.02 30.9792 38.02ZM12.1992 22C12.1992 28.88 14.0992 32.32 17.8992 32.32C21.6992 32.32 23.5992 28.88 23.5992 22C23.5992 15.12 21.6992 11.68 17.8992 11.68C14.0992 11.68 12.1992 15.12 12.1992 22Z" fill="url(#paint0_linear)"/>
<path d="M48.0262 1.00004H58.2262V43H46.2262V13.54L38.9663 15.28L36.2062 5.26004L48.0262 1.00004Z" fill="url(#paint1_linear)"/>
<defs>
<linearGradient id="paint0_linear" x1="29.2127" y1="43.96" x2="29.2127" y2="0.040041" gradientUnits="userSpaceOnUse">
<stop stop-color="#E04100"/>
<stop offset="1" stop-color="#FD733B"/>
</linearGradient>
<linearGradient id="paint1_linear" x1="29.2127" y1="43.96" x2="29.2127" y2="0.040041" gradientUnits="userSpaceOnUse">
<stop stop-color="#E04100"/>
<stop offset="1" stop-color="#FD733B"/>
</linearGradient>
</defs>
</svg>
