<svg width="68" height="44" viewBox="0 0 68 44" fill="none" xmlns="http://www.w3.org/2000/svg">
<path d="M30.9792 38.02C27.8992 41.98 23.5392 43.96 17.8992 43.96C12.2592 43.96 7.89922 41.98 4.81922 38.02C1.73922 34.02 0.199219 28.68 0.199219 22C0.199219 15.32 1.73922 10 4.81922 6.04004C7.89922 2.04004 12.2592 0.0400391 17.8992 0.0400391C23.5392 0.0400391 27.8992 2.04004 30.9792 6.04004C34.0592 10 35.5992 15.32 35.5992 22C35.5992 28.68 34.0592 34.02 30.9792 38.02ZM12.1992 22C12.1992 28.88 14.0992 32.32 17.8992 32.32C21.6992 32.32 23.5992 28.88 23.5992 22C23.5992 15.12 21.6992 11.68 17.8992 11.68C14.0992 11.68 12.1992 15.12 12.1992 22Z" fill="url(#paint0_linear)"/>
<path d="M37.4062 43V34.24L51.0863 19.42C51.3263 19.14 51.6663 18.76 52.1063 18.28C52.5863 17.8 52.9062 17.46 53.0662 17.26C53.2662 17.06 53.5063 16.8 53.7863 16.48C54.1063 16.12 54.3063 15.84 54.3862 15.64C54.5063 15.4 54.6063 15.16 54.6863 14.92C54.8063 14.64 54.8662 14.36 54.8662 14.08C54.8662 13.4 54.6263 12.84 54.1463 12.4C53.6663 11.92 52.9662 11.68 52.0462 11.68C49.8062 11.68 48.1462 13.1 47.0662 15.94L36.5062 10.18C37.9062 6.86004 39.9662 4.34004 42.6862 2.62004C45.4462 0.900038 48.5062 0.0400391 51.8662 0.0400391C55.9862 0.0400391 59.5063 1.22004 62.4263 3.58004C65.3863 5.90004 66.8663 9.12004 66.8663 13.24C66.8663 15.76 66.3063 17.96 65.1863 19.84C64.1063 21.72 62.3862 23.98 60.0262 26.62L55.7663 31.36H67.7663V43H37.4062Z" fill="url(#paint1_linear)"/>
<defs>
<linearGradient id="paint0_linear" x1="33.9827" y1="43.96" x2="33.9827" y2="0.040041" gradientUnits="userSpaceOnUse">
<stop stop-color="#E04100"/>
<stop offset="1" stop-color="#FD733B"/>
</linearGradient>
<linearGradient id="paint1_linear" x1="33.9827" y1="43.96" x2="33.9827" y2="0.040041" gradientUnits="userSpaceOnUse">
<stop stop-color="#E04100"/>
<stop offset="1" stop-color="#FD733B"/>
</linearGradient>
</defs>
</svg>
