<svg width="68" height="44" viewBox="0 0 68 44" fill="none" xmlns="http://www.w3.org/2000/svg">
<path d="M30.9792 38.02C27.8992 41.98 23.5392 43.96 17.8992 43.96C12.2592 43.96 7.89922 41.98 4.81922 38.02C1.73922 34.02 0.199219 28.68 0.199219 22C0.199219 15.32 1.73922 10 4.81922 6.04004C7.89922 2.04004 12.2592 0.0400391 17.8992 0.0400391C23.5392 0.0400391 27.8992 2.04004 30.9792 6.04004C34.0592 10 35.5992 15.32 35.5992 22C35.5992 28.68 34.0592 34.02 30.9792 38.02ZM12.1992 22C12.1992 28.88 14.0992 32.32 17.8992 32.32C21.6992 32.32 23.5992 28.88 23.5992 22C23.5992 15.12 21.6992 11.68 17.8992 11.68C14.0992 11.68 12.1992 15.12 12.1992 22Z" fill="url(#paint0_linear)"/>
<path d="M58.1803 18.16C60.9003 18.96 63.0603 20.36 64.6603 22.36C66.3003 24.32 67.1203 26.8 67.1203 29.8C67.1203 34.44 65.6403 37.96 62.6803 40.36C59.7203 42.76 56.0003 43.96 51.5203 43.96C47.8403 43.96 44.6203 43.12 41.8603 41.44C39.1003 39.76 37.1203 37.28 35.9203 34L46.4803 27.94C47.3203 30.86 49.0003 32.32 51.5203 32.32C52.6003 32.32 53.4603 32.04 54.1003 31.48C54.7803 30.92 55.1203 30.16 55.1203 29.2C55.1203 27.2 53.9203 26.2 51.5203 26.2H48.9403L44.2603 19.24L49.9003 12.64H37.2403V1.00004H64.8403V10.24L58.1803 18.16Z" fill="url(#paint1_linear)"/>
<defs>
<linearGradient id="paint0_linear" x1="33.6598" y1="43.96" x2="33.6598" y2="0.040041" gradientUnits="userSpaceOnUse">
<stop stop-color="#E04100"/>
<stop offset="1" stop-color="#FD733B"/>
</linearGradient>
<linearGradient id="paint1_linear" x1="33.6598" y1="43.96" x2="33.6598" y2="0.040041" gradientUnits="userSpaceOnUse">
<stop stop-color="#E04100"/>
<stop offset="1" stop-color="#FD733B"/>
</linearGradient>
</defs>
</svg>
