<svg width="72" height="44" viewBox="0 0 72 44" fill="none" xmlns="http://www.w3.org/2000/svg">
<path d="M30.9802 38.02C27.9002 41.98 23.5402 43.96 17.9002 43.96C12.2602 43.96 7.9002 41.98 4.8202 38.02C1.7402 34.02 0.200195 28.68 0.200195 22C0.200195 15.32 1.7402 10 4.8202 6.04004C7.9002 2.04004 12.2602 0.0400391 17.9002 0.0400391C23.5402 0.0400391 27.9002 2.04004 30.9802 6.04004C34.0602 10 35.6002 15.32 35.6002 22C35.6002 28.68 34.0602 34.02 30.9802 38.02ZM12.2002 22C12.2002 28.88 14.1002 32.32 17.9002 32.32C21.7002 32.32 23.6002 28.88 23.6002 22C23.6002 15.12 21.7002 11.68 17.9002 11.68C14.1002 11.68 12.2002 15.12 12.2002 22Z" fill="url(#paint0_linear)"/>
<path d="M71.5791 26.08V36.88H67.3791V43H55.6191V36.88H37.9791V26.08L49.5591 1.00004H63.1791L51.4191 26.08H55.6191V20.2H67.3791V26.08H71.5791Z" fill="url(#paint1_linear)"/>
<defs>
<linearGradient id="paint0_linear" x1="35.8897" y1="43.96" x2="35.8897" y2="0.040041" gradientUnits="userSpaceOnUse">
<stop stop-color="#E04100"/>
<stop offset="1" stop-color="#FD733B"/>
</linearGradient>
<linearGradient id="paint1_linear" x1="35.8897" y1="43.96" x2="35.8897" y2="0.040041" gradientUnits="userSpaceOnUse">
<stop stop-color="#E04100"/>
<stop offset="1" stop-color="#FD733B"/>
</linearGradient>
</defs>
</svg>
