<svg width="69" height="44" viewBox="0 0 69 44" fill="none" xmlns="http://www.w3.org/2000/svg">
<path d="M30.9802 38.02C27.9002 41.98 23.5402 43.96 17.9002 43.96C12.2602 43.96 7.9002 41.98 4.8202 38.02C1.7402 34.02 0.200195 28.68 0.200195 22C0.200195 15.32 1.7402 10 4.8202 6.04004C7.9002 2.04004 12.2602 0.0400391 17.9002 0.0400391C23.5402 0.0400391 27.9002 2.04004 30.9802 6.04004C34.0602 10 35.6002 15.32 35.6002 22C35.6002 28.68 34.0602 34.02 30.9802 38.02ZM12.2002 22C12.2002 28.88 14.1002 32.32 17.9002 32.32C21.7002 32.32 23.6002 28.88 23.6002 22C23.6002 15.12 21.7002 11.68 17.9002 11.68C14.1002 11.68 12.2002 15.12 12.2002 22Z" fill="url(#paint0_linear)"/>
<path d="M54.4932 15.7C58.6532 15.7 62.0932 16.88 64.8132 19.24C67.5332 21.56 68.8932 24.92 68.8932 29.32C68.8932 34 67.4132 37.62 64.4532 40.18C61.4932 42.7 57.7732 43.96 53.2932 43.96C49.3332 43.96 45.9332 43.12 43.0932 41.44C40.2932 39.76 38.2932 37.28 37.0932 34L47.6532 27.94C48.4932 30.86 50.3732 32.32 53.2932 32.32C54.3732 32.32 55.2332 32.06 55.8732 31.54C56.5532 31.02 56.8932 30.26 56.8932 29.26C56.8932 27.3 55.6932 26.32 53.2932 26.32H39.4932L41.2332 1.00004H66.4932V12.64H52.2132L51.9732 15.7H54.4932Z" fill="url(#paint1_linear)"/>
<defs>
<linearGradient id="paint0_linear" x1="34.5467" y1="43.96" x2="34.5467" y2="0.040041" gradientUnits="userSpaceOnUse">
<stop stop-color="#E04100"/>
<stop offset="1" stop-color="#FD733B"/>
</linearGradient>
<linearGradient id="paint1_linear" x1="34.5467" y1="43.96" x2="34.5467" y2="0.040041" gradientUnits="userSpaceOnUse">
<stop stop-color="#E04100"/>
<stop offset="1" stop-color="#FD733B"/>
</linearGradient>
</defs>
</svg>
