<svg width="12" height="7" viewBox="0 0 12 7" fill="none" xmlns="http://www.w3.org/2000/svg">
<path d="M4.02003 5.71721L0.351296 2.04847C0.12629 1.82335 -7.50463e-05 1.51808 -1.90666e-08 1.1998C7.50081e-05 0.881518 0.126583 0.576302 0.351695 0.351296C0.576807 0.12629 0.882082 -7.49414e-05 1.20036 8.58478e-08C1.51865 7.5113e-05 1.82386 0.126584 2.04887 0.351696L5.7168 4.02043C5.75396 4.05768 5.7981 4.08724 5.8467 4.1074C5.89529 4.12757 5.94739 4.13795 6 4.13795C6.05261 4.13795 6.10471 4.12757 6.1533 4.1074C6.2019 4.08724 6.24604 4.05768 6.28319 4.02043L9.95113 0.351697C10.1761 0.126585 10.4814 7.55048e-05 10.7996 5.05445e-07C11.1179 -7.44939e-05 11.4232 0.12629 11.6483 0.351296C11.8734 0.576302 11.9999 0.881518 12 1.1998C12.0001 1.51808 11.8737 1.82336 11.6487 2.04847L7.97997 5.71721C7.45435 6.24138 6.74232 6.53574 6 6.53574C5.25768 6.53574 4.54565 6.24138 4.02003 5.71721Z" fill="#E04100"/>
</svg>
