<svg width="7" height="12" viewBox="0 0 7 12" fill="none" xmlns="http://www.w3.org/2000/svg">
<path d="M0.81795 7.97997L4.48669 11.6487C4.7118 11.8737 5.01708 12.0001 5.33536 12C5.65364 11.9999 5.95885 11.8734 6.18386 11.6483C6.40887 11.4232 6.53523 11.1179 6.53516 10.7996C6.53508 10.4814 6.40857 10.1761 6.18346 9.95113L2.51472 6.2832C2.47747 6.24604 2.44792 6.2019 2.42775 6.1533C2.40759 6.10471 2.39721 6.05261 2.39721 6C2.39721 5.94739 2.40759 5.89529 2.42775 5.8467C2.44792 5.7981 2.47747 5.75396 2.51472 5.71681L6.18346 2.04887C6.40857 1.82386 6.53508 1.51865 6.53516 1.20036C6.53523 0.882083 6.40887 0.576809 6.18386 0.351697C5.95885 0.126585 5.65364 7.54173e-05 5.33536 1.0489e-07C5.01707 -7.52076e-05 4.7118 0.12629 4.48669 0.351296L0.81795 4.02003C0.293773 4.54565 -0.000584238 5.25768 -0.000584173 6C-0.000584108 6.74232 0.293774 7.45435 0.81795 7.97997Z" fill="white"/>
</svg>
