<svg width="7" height="12" viewBox="0 0 7 12" fill="none" xmlns="http://www.w3.org/2000/svg">
<path d="M6.18205 7.97997L2.51331 11.6487C2.2882 11.8737 1.98292 12.0001 1.66464 12C1.34636 11.9999 1.04115 11.8734 0.816139 11.6483C0.591134 11.4232 0.464769 11.1179 0.464844 10.7996C0.464919 10.4814 0.591428 10.1761 0.81654 9.95113L4.48528 6.2832C4.52253 6.24604 4.55208 6.2019 4.57225 6.1533C4.59241 6.10471 4.60279 6.05261 4.60279 6C4.60279 5.94739 4.59241 5.89529 4.57225 5.8467C4.55208 5.7981 4.52253 5.75396 4.48528 5.71681L0.816541 2.04887C0.591429 1.82386 0.46492 1.51865 0.464845 1.20036C0.46477 0.882083 0.591135 0.576809 0.81614 0.351697C1.04115 0.126585 1.34636 7.54173e-05 1.66464 1.0489e-07C1.98293 -7.52076e-05 2.2882 0.12629 2.51331 0.351296L6.18205 4.02003C6.70623 4.54565 7.00058 5.25768 7.00058 6C7.00058 6.74232 6.70623 7.45435 6.18205 7.97997Z" fill="url(#paint0_linear)"/>
<defs>
<linearGradient id="paint0_linear" x1="3.73271" y1="-2.35117e-07" x2="3.73272" y2="12" gradientUnits="userSpaceOnUse">
<stop stop-color="#E04100"/>
<stop offset="1" stop-color="#FD733B"/>
</linearGradient>
</defs>
</svg>
