<svg width="7" height="12" viewBox="0 0 7 12" fill="none" xmlns="http://www.w3.org/2000/svg">
<path d="M0.818927 7.97997L4.48767 11.6487C4.71278 11.8737 5.01805 12.0001 5.33633 12C5.65462 11.9999 5.95983 11.8734 6.18484 11.6483C6.40984 11.4232 6.53621 11.1179 6.53613 10.7996C6.53606 10.4814 6.40955 10.1761 6.18444 9.95113L2.5157 6.2832C2.47845 6.24604 2.44889 6.2019 2.42873 6.1533C2.40856 6.10471 2.39818 6.05261 2.39818 6C2.39818 5.94739 2.40856 5.89529 2.42873 5.8467C2.44889 5.7981 2.47845 5.75396 2.5157 5.71681L6.18444 2.04887C6.40955 1.82386 6.53606 1.51865 6.53613 1.20036C6.53621 0.882083 6.40984 0.576809 6.18484 0.351697C5.95983 0.126585 5.65461 7.54173e-05 5.33633 1.0489e-07C5.01805 -7.52076e-05 4.71278 0.12629 4.48766 0.351296L0.818927 4.02003C0.29475 4.54565 0.000392324 5.25768 0.000392389 6C0.000392454 6.74232 0.29475 7.45435 0.818927 7.97997Z" fill="url(#paint0_linear)"/>
<defs>
<linearGradient id="paint0_linear" x1="3.26826" y1="-2.35117e-07" x2="3.26826" y2="12" gradientUnits="userSpaceOnUse">
<stop stop-color="#E04100"/>
<stop offset="1" stop-color="#FD733B"/>
</linearGradient>
</defs>
</svg>
