<svg width="6" height="4" viewBox="0 0 6 4" fill="none" xmlns="http://www.w3.org/2000/svg">
<path d="M3.54703 3.49904L5.78564 1.2537C5.92294 1.11593 6.00005 0.929095 6 0.7343C5.99995 0.539506 5.92276 0.352708 5.7854 0.215C5.64804 0.0772918 5.46176 -4.58143e-05 5.26755 1.2229e-07C5.07334 4.60589e-05 4.8871 0.0774722 4.74981 0.215245L2.51168 2.46058C2.48901 2.48338 2.46207 2.50147 2.43242 2.51381C2.40277 2.52615 2.37098 2.5325 2.33888 2.5325C2.30677 2.5325 2.27499 2.52615 2.24533 2.51381C2.21568 2.50147 2.18875 2.48338 2.16607 2.46058L1.25019 1.49405C1.1129 1.35628 0.926658 1.27885 0.732447 1.2788C0.538235 1.27876 0.351961 1.35609 0.214601 1.4938C0.0772407 1.63151 4.55524e-05 1.81831 -1.96873e-07 2.0131C-4.59462e-05 2.2079 0.0770606 2.39473 0.214356 2.5325L1.13073 3.49904C1.45145 3.81985 1.88592 4 2.33888 4C2.79183 4 3.2263 3.81985 3.54703 3.49904Z" fill="url(#paint0_linear)"/>
<defs>
<linearGradient id="paint0_linear" x1="-4.59097e-07" y1="2" x2="6" y2="2" gradientUnits="userSpaceOnUse">
<stop stop-color="#E04100"/>
<stop offset="1" stop-color="#FD733B"/>
</linearGradient>
</defs>
</svg>
