<svg width="15" height="18" viewBox="0 0 15 18" fill="none" xmlns="http://www.w3.org/2000/svg">
<path d="M7.20703 2.8125C4.78389 2.8125 2.8125 4.78389 2.8125 7.20703C2.8125 9.63018 4.78389 11.6016 7.20703 11.6016C7.61629 11.6016 8.02178 11.5452 8.41226 11.434C8.78576 11.3278 9.00232 10.9388 8.89604 10.5653C8.7897 10.1918 8.4008 9.9752 8.02726 10.0815C7.76204 10.157 7.48607 10.1953 7.20703 10.1953C5.55929 10.1953 4.21875 8.85477 4.21875 7.20703C4.21875 5.55929 5.55929 4.21875 7.20703 4.21875C8.85477 4.21875 10.1953 5.55929 10.1953 7.20703C10.1953 7.5002 10.1531 7.78957 10.0699 8.06706C9.95836 8.43901 10.1695 8.83097 10.5414 8.94252C10.9134 9.054 11.3053 8.84299 11.4169 8.471C11.5394 8.06238 11.6016 7.63713 11.6016 7.20703C11.6016 4.78389 9.63018 2.8125 7.20703 2.8125Z" fill="white"/>
<path d="M12.3003 2.10811C10.9394 0.748688 9.1305 0 7.20693 0C5.28332 0 3.47449 0.748688 2.11359 2.10814C0.752836 3.4675 0.00221484 5.2753 0 7.20011C0.00137109 8.60126 0.390551 9.91582 1.18972 11.219C1.88177 12.3474 2.78082 13.332 3.73264 14.3744C4.66594 15.3964 5.63094 16.4533 6.40164 17.6726C6.53048 17.8764 6.75485 18 6.99599 18H7.41786C7.659 18 7.88337 17.8764 8.01222 17.6725C8.78291 16.4532 9.74791 15.3964 10.6812 14.3743C11.633 13.332 12.5321 12.3474 13.2241 11.219C14.0233 9.91578 14.4125 8.60119 14.4139 7.19856C14.4117 5.27527 13.661 3.46746 12.3003 2.10811ZM9.64276 13.4261C8.81293 14.3349 7.95909 15.27 7.20693 16.3454C6.45479 15.27 5.60092 14.3349 4.77109 13.4261C2.96691 11.4503 1.40871 9.74391 1.40625 7.20021C1.40991 4.00542 4.0121 1.40625 7.20693 1.40625C10.4018 1.40625 13.0039 4.00542 13.0076 7.1987C13.0051 9.74391 11.4469 11.4503 9.64276 13.4261Z" fill="white"/>
</svg>
