<svg width="71" height="79" viewBox="0 0 71 79" fill="none" xmlns="http://www.w3.org/2000/svg">
<path fill-rule="evenodd" clip-rule="evenodd" d="M19.7753 15.2619C20.0475 15.1922 20.8111 15.2108 21.6883 15.8424C22.1472 16.1728 22.4549 16.67 22.7637 17.1689C23.1926 17.8619 23.6236 18.5582 24.4645 18.8147C25.3064 19.0715 27.9259 18.5496 30.1575 18.1051C31.7606 17.7857 33.1633 17.5063 33.5631 17.584C34.3283 17.7325 35.5462 18.6831 36.0595 19.1398C36.005 19.3565 35.9288 19.8133 36.0595 19.9061C36.124 19.952 36.2249 19.8745 36.3467 19.7813C36.5327 19.6386 36.7669 19.4589 36.9927 19.6274C37.2148 19.7933 37.0238 20.4773 36.8671 21.0382C36.7605 21.4199 36.6698 21.7445 36.736 21.8103C36.823 21.8968 37.148 21.5818 37.4787 21.2613C37.7691 20.9798 38.064 20.6942 38.2058 20.6724C38.5091 20.626 38.579 20.8582 38.6024 21.0208C38.6123 21.0896 38.5176 21.2708 38.4157 21.4657C38.277 21.7312 38.125 22.0219 38.2058 22.0889C38.2854 22.155 38.5765 21.943 38.8384 21.7521C39.0369 21.6076 39.2187 21.4752 39.279 21.4852C39.419 21.5084 39.9322 21.996 39.9555 22.1818C39.9638 22.2475 39.8817 22.4695 39.7835 22.7355V22.7356C39.6038 23.2225 39.3697 23.8566 39.5356 23.9466C39.6755 24.0226 40.0581 23.6568 40.4227 23.3083C40.7267 23.0177 41.0181 22.7391 41.1453 22.7391C41.4253 22.7391 41.4719 22.9016 41.4719 23.1107C41.4719 23.1831 41.4187 23.4059 41.3541 23.6768C41.2321 24.1882 41.069 24.871 41.1453 25.038C41.262 25.2934 42.0318 24.7594 42.2885 24.4575C42.4938 24.216 42.6385 23.5983 42.685 23.3196H43.7349C43.7194 23.5596 43.6369 24.2903 43.4317 25.2934C43.2953 25.9596 43.1261 26.4161 43.0113 26.7255C42.91 26.9985 42.8514 27.1569 42.8951 27.2441C42.9884 27.4298 43.8283 26.9885 44.6448 25.9204C45.0665 25.3687 45.2144 24.8603 45.3199 24.4978C45.4187 24.1583 45.4803 23.9466 45.6946 23.9466C45.9647 23.9466 46.0183 24.2139 46.0928 24.5855C46.1405 24.8238 46.1969 25.1051 46.3245 25.3863C46.6512 26.1061 46.9078 26.5706 47.0944 26.5009C47.1534 26.479 47.2542 26.3387 47.38 26.1639C47.6526 25.785 48.0424 25.2433 48.3776 25.3863C48.8674 25.5953 48.8907 27.2208 48.7275 27.5692C48.5642 27.9174 49.9872 27.2905 50.4539 26.0598C50.8272 25.0752 50.8582 24.2408 50.8272 23.9466C50.9594 23.8305 51.2564 23.6122 51.3871 23.668C51.5177 23.7236 51.5037 25.007 51.4804 25.6418C51.527 25.665 51.6438 25.6789 51.7371 25.5488C51.8537 25.3863 51.667 26.4777 51.4804 26.71C51.2938 26.9422 52.5769 26.5706 53.0202 25.5488C53.3748 24.7315 53.3234 24.0007 53.2534 23.7376C53.4012 23.668 53.7247 23.5704 53.8367 23.7376C53.9767 23.9466 54.1633 24.5039 54.2333 25.3863C54.2684 25.8294 54.2389 26.3077 54.2155 26.6858V26.6859C54.1923 27.0607 54.1752 27.3371 54.2333 27.3833C54.3499 27.4763 55.4698 26.5474 55.6565 25.5488C55.8057 24.7501 55.7186 24.0086 55.6565 23.7376H55.9364C55.9986 23.8305 56.1183 24.0534 56.0997 24.2021C56.0763 24.3878 56.3097 24.1556 56.3797 23.9466L56.473 23.668H56.7062C56.7451 23.8924 56.7716 24.4714 56.5663 24.9915C56.6674 25.007 56.9535 24.922 57.2896 24.4575C57.5388 24.1128 57.6237 23.9856 57.6413 23.9524C57.6644 24.0255 57.694 24.1966 57.6394 24.3413C57.5695 24.5272 58.0827 24.3878 58.246 23.7376C58.3767 23.2174 58.3005 22.9481 58.246 22.8784C58.9304 22.3056 60.201 21.016 59.8091 20.4401C59.3192 19.7203 57.4062 19.8364 56.8228 19.9758C56.7325 19.9974 56.5465 20.0568 56.2803 20.1419C54.8277 20.6061 50.9877 21.8335 47.2811 21.8335C43.2027 21.8335 41.4844 20.93 39.8942 20.0937L39.8939 20.0936C39.7741 20.0306 39.655 19.968 39.5356 19.9061C38.1731 19.2001 36.4949 17.6459 35.8261 16.957C36.7904 17.7542 39.6335 19.5856 43.105 20.4401C47.2089 21.4504 49.6018 20.9444 52.1978 20.3955C52.3467 20.364 52.4963 20.3324 52.6469 20.3009C53.9433 20.0297 54.8885 19.7232 55.6516 19.4759C56.5226 19.1935 57.1561 18.9881 57.8027 19.0004C58.7733 19.019 59.5447 19.2868 59.8091 19.4185C59.8325 17.2589 59.5385 12.5775 58.176 11.1284C57.5788 10.4968 56.3718 10.3389 55.8431 10.3389C55.2288 9.73514 53.8554 8.45797 53.2768 8.17931C52.6983 7.90067 52.1648 7.92388 51.9703 7.97032C51.5504 7.56783 50.5473 6.67457 49.8939 6.32161C49.2407 5.96865 48.4242 5.83396 48.0976 5.81074C47.7554 5.4392 46.9031 4.68218 46.2312 4.62645C45.8312 4.59328 45.3891 4.78123 44.9574 4.96468C44.4826 5.16651 44.0205 5.36291 43.6416 5.25343C43.2346 5.1358 43.0492 4.76807 42.8734 4.41936C42.7369 4.14849 42.6062 3.88908 42.3818 3.76726C42.1631 3.64855 41.5423 3.72791 40.7483 3.8294C39.6784 3.96615 38.2942 4.14308 37.156 3.92981C35.1729 3.55827 33.4698 2.7223 32.2567 1.8399C31.6533 1.40097 31.1826 0.910364 30.8131 0.525209C30.4397 0.136028 30.0323 0.0188295 29.833 0.00715839C28.3449 -0.0799482 27.8068 0.647721 26.9981 1.11215C26.2126 1.08892 24.6046 1.21291 23.858 1.49157C23.4448 1.64578 23.2649 1.85464 23.0448 2.11005C22.7679 2.43149 22.4274 2.82671 21.4784 3.27962C20.971 3.52172 20.5486 3.7082 20.1826 3.86972C19.3202 4.25043 18.7716 4.49257 18.1655 4.99799C17.7417 5.35148 17.4134 6.13609 16.9129 7.33259C16.3941 8.57276 15.6902 10.2554 14.5028 12.3591C13.6262 13.9122 12.7694 15.3603 12.0264 16.6162C10.7919 18.7026 9.87163 20.258 9.69686 20.8814C9.53291 21.4661 9.62499 22.035 9.71071 22.5645C9.77137 22.9393 9.82885 23.2943 9.79018 23.6215C9.77354 23.7623 9.74502 23.951 9.71099 24.1764L9.71097 24.1766C9.55416 25.2148 9.2802 27.0288 9.51022 28.4979C9.79018 30.2861 12.5198 36.4164 13.3363 36.6254C13.7852 36.7404 15.5389 36.5674 17.1974 36.4039C18.5555 36.2701 19.8498 36.1424 20.3119 36.1843C20.7907 36.2276 21.2948 36.377 21.7912 36.5242C22.3591 36.6924 22.9168 36.8577 23.4147 36.8577C24.3479 36.8577 24.9312 36.1378 24.7679 35.9753C24.7345 35.9422 24.6399 35.8834 24.4929 35.7921C23.919 35.4359 22.5452 34.5837 20.8951 32.8171C19.6586 31.4936 18.741 29.4655 18.6555 28.9392C18.0645 29.5662 16.5278 30.7923 15.1094 30.6808C13.9109 30.5866 13.6078 30.0681 13.4003 29.7133C13.3008 29.543 13.2233 29.4105 13.0797 29.3804C12.9275 29.3485 12.7671 29.3932 12.5947 29.4414C12.2648 29.5333 11.8909 29.6376 11.4466 29.2411C10.9053 28.7581 11.1122 27.3369 11.2833 26.6868C11.2833 27.2053 11.4373 28.2936 12.0532 28.4979C12.462 28.6336 12.7393 28.5663 12.9933 28.5045C13.2175 28.4501 13.4237 28.4 13.6862 28.4979C13.9414 28.5933 14.1384 28.8235 14.3325 29.0504C14.5643 29.3213 14.7919 29.5873 15.1094 29.6126C15.5759 29.6498 17.3646 28.4206 18.2355 27.7317C18.0722 27.4453 17.8296 26.4498 17.699 25.5953C17.5683 24.7408 17.6912 23.606 17.7923 23.1107C17.8287 23.257 17.8674 23.4143 17.9083 23.5809L17.9084 23.5813C18.3313 25.3011 18.9999 28.0196 19.9619 30.0307C21.0628 32.3317 22.9122 33.7355 24.3201 34.8042C24.6171 35.0296 24.8946 35.2403 25.1412 35.4411C25.7322 35.4334 27.4088 35.5898 29.3871 36.2772C31.2345 36.9189 34.0972 38.5326 36.1082 39.6662C36.7893 40.05 37.3726 40.379 37.7859 40.5963C39.419 41.4556 43.9693 43.5912 45.1347 43.5221C46.7211 43.4282 48.0018 42.0661 49.0385 40.9635C49.2824 40.704 49.5129 40.4588 49.7307 40.2479C48.7664 40.1551 46.0959 39.5421 43.1283 37.8329C40.8186 36.5027 37.3148 32.8676 34.7235 30.1792C33.1534 28.55 31.9182 27.2685 31.4868 27.0582C30.7624 26.7051 29.0916 26.7062 27.7273 26.7072C26.9389 26.7078 26.2528 26.7083 25.911 26.6403C24.9778 26.4545 24.0447 25.7347 23.5547 24.6432C23.3375 24.1593 22.9914 23.0373 22.6085 21.7959C22.128 20.2375 21.5894 18.4912 21.1751 17.584C20.6798 16.4995 20.2508 15.9266 19.9954 15.5856C19.8898 15.4446 19.814 15.3433 19.7753 15.2619ZM22.6215 18.4896C23.0804 20.208 24.1332 24.0024 25.0478 24.9683C25.6921 25.6489 27.2331 25.6877 28.7143 25.725C29.8613 25.7539 30.9722 25.7819 31.6035 26.1061C32.2272 26.4266 33.4293 27.6891 34.9442 29.28C36.9422 31.3784 39.4844 34.0482 41.9618 35.8824C44.7847 37.9723 48.2142 39.412 50.1273 39.6442C50.2673 39.4197 50.5053 38.8082 50.3372 38.158C50.1693 37.5079 49.5518 37.0976 49.2641 36.9737C49.2018 36.8887 49.0541 36.7694 48.9608 36.9737C48.8674 37.1782 48.6264 37.2293 48.5175 37.2293C48.5175 37.1209 48.4755 36.8995 48.3075 36.8809C48.1396 36.8623 47.7865 37.3221 47.631 37.5543C47.6076 37.6007 47.5377 37.6797 47.4444 37.624C47.3961 37.5951 47.3439 37.3955 47.2843 37.168C47.2 36.8455 47.1009 36.4669 46.9777 36.4397C46.8626 36.4142 46.6071 36.7938 46.3806 37.1304C46.194 37.4075 46.0272 37.6554 45.9745 37.624C45.9031 37.5812 45.9016 37.0505 45.9006 36.6351V36.635C45.8999 36.3723 45.8993 36.1558 45.8812 36.1378C45.8634 36.12 45.7701 36.2524 45.654 36.417L45.6538 36.4172C45.4671 36.6821 45.221 37.031 45.1347 36.9737C45.0622 36.9256 45.0022 36.4851 44.9451 36.0652C44.8919 35.6742 44.841 35.301 44.7847 35.2786C44.7287 35.2563 44.6402 35.4166 44.5479 35.584C44.4482 35.7644 44.3442 35.9529 44.2715 35.9288C44.1944 35.9032 44.1952 35.3429 44.1958 34.8327C44.1963 34.416 44.1968 34.0328 44.1548 34.0014C44.11 33.9679 43.8973 34.2467 43.6759 34.5369C43.4374 34.8495 43.1889 35.1754 43.1283 35.1392C43.0772 35.1087 43.0351 34.7711 42.9883 34.3953C42.928 33.9126 42.86 33.3672 42.7551 33.3281C42.6773 33.299 42.5227 33.548 42.3433 33.8368C42.0923 34.2411 41.7928 34.7233 41.5886 34.6284C41.3741 34.5289 41.3086 33.8184 41.2578 33.2674C41.2258 32.9195 41.1995 32.6351 41.1453 32.6082C41.0847 32.5781 40.937 32.7478 40.7754 32.9332C40.5636 33.1764 40.3281 33.4466 40.2354 33.3281C40.1425 33.209 40.1402 32.8418 40.1384 32.5302C40.137 32.2945 40.1357 32.0908 40.0955 32.0509C40.0535 32.009 39.9358 32.1368 39.8083 32.2749C39.6528 32.4437 39.483 32.6278 39.419 32.5385C39.3599 32.4562 39.3905 31.9816 39.42 31.5236C39.4488 31.0766 39.4765 30.6455 39.419 30.6112C39.3706 30.5824 39.2068 30.8155 39.0181 31.084C38.7502 31.4653 38.4319 31.918 38.3224 31.7955C38.2193 31.6799 38.3014 30.9614 38.3758 30.3105C38.4361 29.7836 38.4913 29.301 38.4391 29.2178C38.3752 29.116 38.2693 29.1955 38.1711 29.269C38.0903 29.3298 38.0146 29.3864 37.9725 29.334C37.9278 29.2783 37.9526 28.9992 37.9779 28.7157C38.0053 28.4069 38.0333 28.0931 37.9725 28.0568C37.9173 28.0238 37.6172 28.3333 37.3037 28.6566C36.9539 29.0173 36.5875 29.3952 36.5261 29.334C36.4603 29.2685 36.4761 28.9524 36.4898 28.6764C36.5005 28.4626 36.5099 28.2729 36.4793 28.2425C36.4498 28.2132 36.3247 28.2706 36.1778 28.338C35.9764 28.4305 35.7339 28.5418 35.6395 28.4748C35.5519 28.4125 35.5919 28.1898 35.6297 27.9788C35.6624 27.7966 35.6936 27.623 35.6395 27.5692C35.5842 27.5141 35.4346 27.5425 35.2751 27.5729C35.098 27.6065 34.9089 27.6424 34.823 27.5692C34.7308 27.4904 34.7724 27.1381 34.8094 26.8251C34.8379 26.5837 34.8636 26.3658 34.823 26.3152C34.7769 26.2578 34.634 26.3478 34.4927 26.4368C34.348 26.5279 34.2051 26.6178 34.1698 26.5474C34.1374 26.4829 34.135 26.2294 34.1325 25.9664C34.1295 25.6612 34.1265 25.3434 34.0764 25.2934C34.0443 25.2614 33.99 25.3369 33.9116 25.4458C33.7626 25.653 33.5264 25.9813 33.1899 25.9204C32.9148 25.8707 32.8005 25.7409 32.6819 25.606C32.5793 25.4893 32.4732 25.3689 32.2567 25.2934C31.8834 25.1634 31.3546 25.2392 31.1369 25.2934C31.028 24.9838 30.7729 24.0394 30.6236 22.7391C30.437 21.1136 30.4836 20.2312 30.5536 20.1383C30.6097 20.064 32.5834 18.9927 33.5631 18.4664C31.4557 19.1011 27.5208 20.2312 24.7446 19.9061C23.896 19.8067 22.8081 18.8379 22.6215 18.4896ZM31.1369 23.1107C31.1679 23.2887 31.2535 23.7329 31.3468 24.0859C31.4402 24.4389 31.5568 24.6974 31.6035 24.7826C31.7746 24.7594 32.168 24.7408 32.3733 24.8523C32.5786 24.9637 32.9566 25.2702 33.1199 25.4096C33.3684 25.3507 33.5532 25.1795 33.7043 25.0396C33.8511 24.9037 33.966 24.7974 34.0764 24.8523C34.4032 25.0148 34.4426 25.3626 34.475 25.6489C34.4866 25.7509 34.4972 25.8452 34.5197 25.9204C34.6675 25.8894 35.0842 25.8044 35.1962 25.9901C35.3082 26.1758 35.3363 26.857 35.3363 27.1744C35.4996 27.1589 35.8401 27.1511 35.8962 27.2441C35.9521 27.3369 35.9816 27.6852 35.9895 27.8478C36.215 27.7781 36.6847 27.6806 36.7593 27.8478C36.8341 28.015 36.9149 28.1807 36.9459 28.2425C37.2259 27.9793 37.8512 27.4763 38.1124 27.5692C38.3737 27.662 38.4391 28.4129 38.4391 28.7767C38.4936 28.7302 38.6304 28.6652 38.7424 28.7767C38.8196 28.8534 38.7903 29.4606 38.7648 29.9927C38.7532 30.2326 38.7424 30.4572 38.7424 30.6112C38.8512 30.4795 39.2743 30.0352 39.5356 30.1467C39.7969 30.2582 39.8155 31.184 39.7923 31.6329C39.8933 31.5787 40.1375 31.5029 40.3054 31.6329C40.4734 31.7629 40.5465 32.1361 40.5621 32.3063C40.8187 31.6329 40.8187 30.1839 40.1655 28.3819C39.8722 27.5729 39.4201 27.1417 38.9694 26.7117C38.6671 26.4233 38.3654 26.1355 38.1124 25.7347C37.8653 25.3429 37.7604 25.0662 37.671 24.8307C37.5327 24.4662 37.4321 24.2009 36.8993 23.7608C36.1331 23.128 34.9 23.4135 34.0115 23.6192C33.6285 23.708 33.3097 23.7818 33.1199 23.7608C32.7326 23.7179 32.3889 23.2887 32.2567 23.1107H31.1369ZM41.1453 31.2148C40.9027 30.156 40.8109 29.1018 40.912 28.707C41.1392 28.7522 41.1697 29.0029 41.1951 29.2115C41.2088 29.3241 41.221 29.4244 41.262 29.4733C41.296 29.5139 41.4394 29.3373 41.598 29.1421C41.7944 28.9004 42.014 28.6299 42.0786 28.707C42.1719 28.8185 42.1174 29.512 42.0786 29.8448C42.1484 29.8061 42.3072 29.7519 42.3818 29.8448C42.4237 29.8969 42.428 30.1546 42.4326 30.4335C42.4384 30.7762 42.4446 31.1509 42.5218 31.2148C42.5911 31.2724 42.7405 31.0395 42.8935 30.801C43.0495 30.5578 43.2092 30.3088 43.2917 30.3557C43.3764 30.4039 43.3543 30.7893 43.3331 31.1621C43.3133 31.5083 43.2943 31.8436 43.3617 31.8883C43.4358 31.9376 43.5364 31.8888 43.6317 31.8427C43.7163 31.8017 43.7967 31.7627 43.8516 31.7955C43.91 31.8303 43.9157 32.1275 43.9216 32.43C43.9274 32.7313 43.9333 33.0379 43.9916 33.0958C44.0462 33.1501 44.2385 32.9808 44.4447 32.7995C44.6791 32.5932 44.9311 32.3715 45.0181 32.4456C45.0923 32.509 45.1232 32.798 45.1566 33.1118C45.1968 33.4881 45.2408 33.9001 45.368 34.0014C45.4898 34.0984 45.6751 33.7904 45.8578 33.4869C46.0249 33.2092 46.1897 32.9353 46.3012 32.9797C46.4151 33.025 46.4178 33.3083 46.4206 33.6C46.4234 33.9057 46.4265 34.2206 46.5578 34.2801C46.6984 34.3437 47.007 34.0172 47.2803 33.7278C47.506 33.489 47.7077 33.2755 47.771 33.3281C47.883 33.4209 47.8177 34.4969 47.771 35.0232C47.8565 34.9922 48.0509 34.9721 48.1442 35.1392C48.1988 35.2369 48.1717 35.3194 48.1489 35.3891C48.1229 35.4684 48.1024 35.531 48.2142 35.5805C48.3124 35.6239 48.3852 35.6267 48.4515 35.6293C48.5268 35.6322 48.5939 35.6348 48.6808 35.6965C48.7481 35.7444 48.7718 35.808 48.7912 35.8597C48.8187 35.9336 48.8373 35.9835 48.9608 35.9288C49.1287 35.8545 49.2796 35.8979 49.334 35.9288C49.3107 36.0526 49.2314 36.3097 49.1008 36.3469C49.0233 36.3688 49.0141 36.4274 49.0034 36.4953C48.9915 36.5706 48.9778 36.6573 48.8674 36.7183C48.6995 36.8112 48.6264 36.757 48.6108 36.7183C48.6031 36.6486 48.5502 36.4954 48.4009 36.4397C48.2516 36.3839 47.9187 36.4629 47.771 36.5094C47.6621 36.3004 47.3744 35.8824 47.0944 35.8824C46.8145 35.8824 46.449 36.0526 46.3012 36.1378C46.2935 35.9908 46.2359 35.6734 46.0678 35.5805C45.8999 35.4876 45.6247 35.6192 45.5079 35.6965C45.3836 35.3715 45.1114 34.7585 45.0181 34.6284C44.9248 34.4984 44.8237 34.5046 44.7847 34.5587C44.7581 34.4598 44.7385 34.3219 44.7181 34.1772C44.6727 33.8578 44.6228 33.5057 44.4815 33.4674C44.2762 33.4116 43.7038 33.8234 43.5483 34.0014C43.4861 33.6066 43.301 32.7893 43.0583 32.6779C42.8608 32.5871 42.5313 32.8237 42.294 32.9942H42.2938C42.2396 33.0331 42.1904 33.0686 42.1484 33.0958C41.9385 32.9488 41.388 32.2738 41.1453 31.2148ZM28.0378 1.89321C28.0405 2.11708 28.0435 2.35094 28.1973 2.55976C28.3579 2.77762 28.6553 2.74111 28.8955 2.71163C29.0394 2.69396 29.1627 2.67882 29.2239 2.7223C29.2888 2.76849 29.3612 2.88449 29.4496 3.02645C29.5837 3.24137 29.7549 3.51581 29.9937 3.6976C30.311 3.93911 30.9347 4.29362 31.2068 4.44068C31.1423 4.45604 31.0711 4.47202 30.995 4.48911L30.9948 4.48917C30.457 4.60996 29.6734 4.78601 29.2239 5.18376C28.279 6.01973 28.104 6.66993 27.9874 7.32013C28.5007 6.6467 29.5317 5.68534 30.2036 5.46242C31.0436 5.18376 31.3236 5.23021 31.6501 5.46242C31.7271 5.51711 31.8972 5.71861 32.1303 5.99475C32.8867 6.89116 34.3073 8.57408 35.3596 8.57408C36.1665 8.57408 36.3801 8.42245 36.5833 8.27826C36.7267 8.17649 36.8647 8.07843 37.2026 8.03999C37.4348 8.01358 37.5464 8.10087 37.6543 8.18519C37.7741 8.27879 37.8892 8.36873 38.1592 8.29543C38.39 8.23275 38.5264 8.14189 38.6449 8.06299C38.7898 7.96649 38.9079 7.88788 39.1389 7.90067C39.344 7.912 39.41 8.0064 39.4754 8.10004C39.5441 8.19815 39.6121 8.29543 39.8388 8.29543C40.0511 8.29543 40.1617 8.21558 40.2629 8.14254C40.3731 8.06303 40.472 7.99157 40.6787 8.03999C40.8454 8.07901 40.9255 8.17129 41.0161 8.27554C41.141 8.41945 41.2858 8.58617 41.7053 8.66697C42.0891 8.74092 42.2364 8.68403 42.3808 8.62825C42.5084 8.57894 42.6337 8.5305 42.9184 8.57408C43.2544 8.62554 43.3542 8.74823 43.4476 8.86325C43.523 8.95587 43.5943 9.04352 43.7815 9.08495C43.9588 9.12414 44.1983 9.11786 44.4423 9.11145C44.7765 9.10267 45.1191 9.09368 45.3213 9.20105C45.4813 9.28598 45.6511 9.39518 45.855 9.52641C46.0972 9.68225 46.3879 9.86917 46.7678 10.0835C47.3277 10.3993 47.9654 10.5711 48.2142 10.6176C47.7788 10.1299 46.7258 9.05709 45.998 8.66697C45.4313 8.36328 45.2356 8.28474 45.0559 8.21262C44.9471 8.16892 44.8441 8.12759 44.6681 8.03999C44.4382 7.92559 44.3782 7.82809 44.3235 7.73918C44.2672 7.64761 44.2165 7.56515 43.9916 7.48268C43.5691 7.32775 42.2565 7.32049 42.1949 7.32014L42.1927 7.32013H42.1952C42.2652 7.32013 42.0318 6.8557 41.2853 6.5306C40.688 6.27053 39.8388 6.31388 39.4889 6.36806C39.4423 6.14358 39.2137 5.68071 38.6723 5.62498C38.1311 5.56924 37.5292 5.86492 37.2959 6.01973C37.1171 5.83396 36.5914 5.46242 35.9195 5.46242C35.2476 5.46242 34.6441 5.75656 34.4264 5.90363C33.3921 4.68064 31.1789 2.13248 30.6003 1.72378C30.0217 1.31509 28.7936 0.947573 27.9874 1.46835C28.0341 1.59856 28.0359 1.74365 28.0378 1.89321ZM19.9386 11.6857C20.0553 11.6548 20.5452 11.1749 20.5452 10.4782C20.5452 10.3888 20.5305 10.1957 20.5106 9.93389L20.5106 9.93376V9.93371L20.5106 9.93351C20.424 8.79416 20.2387 6.35411 20.7318 5.48564C21.171 4.71217 22.809 4.0848 23.9274 3.65644C24.3536 3.49323 24.7042 3.3589 24.8845 3.25639C25.4071 2.95916 25.8177 2.73005 25.9577 2.65265C25.9033 2.85389 25.5938 3.40501 24.7912 3.99948C24.4917 4.22137 24.165 4.42051 23.8362 4.62097C23.0639 5.09179 22.2795 5.57 21.805 6.36806C21.5612 6.77798 21.5742 7.60774 21.5877 8.46651C21.6021 9.38888 21.6171 10.3447 21.3151 10.8498C20.8485 11.63 20.203 11.7322 19.9386 11.6857ZM31.6501 9.20105C30.0637 8.94098 29.636 8.08644 29.6204 7.69167C29.7371 6.80926 30.5723 6.58633 31.4868 6.80926C32.4014 7.03217 32.9566 8.14062 33.1666 8.66697C33.291 8.95337 33.2366 9.46114 31.6501 9.20105ZM51.4804 12.0805C51.5037 12.3824 52.1803 13.3112 53.0668 13.7757C53.2661 13.8801 53.4737 13.9821 53.6793 14.0831V14.0833H53.6795C54.3879 14.4317 55.0714 14.7678 55.3065 15.1457C55.3707 15.249 55.4245 15.3386 55.4706 15.4157C55.6425 15.7026 55.7094 15.8142 55.8197 15.7959C55.9597 15.7727 55.8897 14.4955 54.9332 13.288C54.168 12.322 52.3125 12.0805 51.4804 12.0805ZM56.753 12.8933C56.0064 12.1502 55.5631 11.3839 55.633 11.0588C56.1852 11.1052 57.4155 11.5 57.9195 12.7075C58.4233 13.915 58.1294 14.7741 57.9195 15.0528C57.9195 14.9135 57.8914 14.5605 57.7794 14.2633C57.6394 13.8917 57.4995 13.6363 56.753 12.8933ZM10.3967 25.1309C10.7234 24.9141 11.4139 24.3924 11.5632 24.0396C11.6473 23.8407 11.5941 23.6843 11.5379 23.5194C11.4694 23.3183 11.3966 23.1045 11.5632 22.7856C11.8665 22.2051 13.6629 20.9046 13.9895 20.8814C14.0153 20.8795 14.0413 20.878 14.0674 20.8764C14.3715 20.8583 14.6938 20.8391 15.016 20.3473C15.1173 20.1928 15.2799 19.7632 15.4794 19.2362C15.8305 18.3084 16.2961 17.0785 16.7424 16.5157C17.3024 15.8099 18.0333 15.3392 18.3289 15.1922C18.3755 15.4011 18.2309 15.9352 18.1189 16.2138C18.0634 16.3521 17.7729 16.9104 17.4237 17.5816H17.4237L17.4237 17.5818C16.8925 18.6028 16.2255 19.8849 16.0425 20.3473C15.9563 20.5651 15.906 20.7228 15.8667 20.8457C15.7679 21.1549 15.74 21.2424 15.3893 21.5084C15.0791 21.7436 14.8998 21.7608 14.7034 21.7795C14.5896 21.7905 14.4701 21.802 14.3161 21.8567C13.6629 22.0889 12.5664 23.041 12.4498 23.3196C12.4001 23.4382 12.4139 23.6494 12.428 23.8672C12.4472 24.1611 12.4671 24.4669 12.3331 24.5736C11.6332 25.1309 11.0033 25.1309 10.3967 25.1309Z" fill="black"/>
<path d="M32.321 7.78854C32.4033 8.254 32.1569 8.68618 31.7707 8.75386C31.3843 8.82153 31.0045 8.49907 30.9221 8.03361C30.8398 7.56816 31.0862 7.13597 31.4725 7.0683C31.8588 7.00063 32.2388 7.32309 32.321 7.78854Z" fill="black"/>
<path d="M0 52.4475H5.73993C6.64325 52.4475 7.50505 52.5514 8.32539 52.7595C9.14808 52.9675 9.87714 53.4461 10.5125 54.1955C11.1479 54.9447 11.4656 56.0509 11.4656 57.514C11.4656 59.2134 10.9512 60.5112 9.92218 61.407C9.60924 61.6859 9.27137 61.9069 8.90863 62.07C8.54825 62.2331 8.16299 62.3548 7.75282 62.4352C7.34265 62.5132 6.93841 62.5628 6.54012 62.5841C6.14418 62.603 5.65931 62.6124 5.08557 62.6124H4.44543H0V60.7546H0.483663C0.751577 60.7546 0.919904 60.7038 0.98867 60.6022C1.05979 60.5006 1.09535 60.3575 1.09535 60.1731V54.8868C1.09535 54.7025 1.06097 54.5595 0.992223 54.4579C0.923457 54.3563 0.753952 54.3053 0.483663 54.3053H0V52.4475ZM4.66237 55.2342V59.8541C4.66237 60.0974 4.70978 60.2499 4.80461 60.3113C4.89944 60.3728 5.05593 60.4035 5.27405 60.4035H5.75416C6.02444 60.4035 6.25323 60.3646 6.44054 60.2867C6.6302 60.2062 6.79617 59.9912 6.93841 59.6414C7.08068 59.2914 7.1518 58.7526 7.1518 58.0245V57.0496C7.1518 56.324 7.08185 55.7862 6.94198 55.4364C6.80209 55.0841 6.63612 54.8656 6.44409 54.7805C6.25441 54.6954 6.02444 54.6528 5.75416 54.6528H5.27405C4.99902 54.6528 4.82832 54.7 4.76195 54.7947C4.69555 54.8892 4.66237 55.0358 4.66237 55.2342Z" fill="black"/>
<path d="M12.2344 62.6124V60.7546H12.6576C12.8876 60.7546 13.0322 60.7086 13.0914 60.6164C13.1531 60.5242 13.1839 60.3764 13.1839 60.1731V54.8868C13.1839 54.6835 13.1543 54.5359 13.095 54.4437C13.0357 54.3515 12.8899 54.3053 12.6576 54.3053H12.2344V52.4475H17.7111V54.3053H17.2773C17.0734 54.3053 16.9347 54.3456 16.8612 54.4259C16.7876 54.5062 16.751 54.6599 16.751 54.8868V60.1731C16.751 60.3977 16.7876 60.5514 16.8612 60.634C16.9347 60.7144 17.0734 60.7546 17.2773 60.7546H17.7111V62.6124H12.2344Z" fill="black"/>
<path d="M29.4723 56.0036H25.8021C25.7499 54.9306 25.2449 54.3939 24.2871 54.3939C23.9505 54.3939 23.6802 54.4543 23.4763 54.5747C23.2748 54.6954 23.1111 54.9837 22.9854 55.4399C22.8622 55.8937 22.8006 56.5945 22.8006 57.5423C22.8006 58.405 22.8551 59.0599 22.9641 59.5065C23.0732 59.9508 23.2426 60.2534 23.4727 60.4142C23.705 60.5726 24.0251 60.6517 24.4328 60.6517C24.8502 60.6517 25.1964 60.5963 25.4713 60.4851C25.7487 60.374 25.8874 60.2074 25.8874 59.9851V59.9107C25.8874 59.698 25.8483 59.5479 25.7701 59.4605C25.6942 59.3729 25.5057 59.3292 25.2046 59.3292H24.8845V57.4714H30.2154V59.3292C29.9286 59.3434 29.7306 59.3932 29.6215 59.4783C29.5124 59.5609 29.458 59.7146 29.458 59.9391V62.6123H27.5803L27.3739 61.8431H27.2886C26.8382 62.2188 26.3889 62.4825 25.9408 62.6336C25.4927 62.785 24.9509 62.8605 24.3155 62.8605C23.6682 62.8605 23.053 62.8015 22.4698 62.6834C21.8889 62.5651 21.3532 62.3773 20.8622 62.1195C20.374 61.8619 19.9614 61.5322 19.6247 61.1303C18.8683 60.2322 18.4902 59.0363 18.4902 57.5423C18.4902 57.1287 18.5377 56.7127 18.6325 56.2943C18.7296 55.8736 18.8719 55.4682 19.0592 55.0782C19.2466 54.6883 19.4646 54.3431 19.7136 54.043C20.7378 52.8044 22.1699 52.1851 24.0097 52.1851C24.8418 52.1851 25.5946 52.2702 26.268 52.4403C26.9437 52.6082 27.5198 52.8575 27.9963 53.1885C28.4729 53.517 28.838 53.9201 29.0917 54.3974C29.3453 54.8727 29.4723 55.4079 29.4723 56.0036Z" fill="black"/>
<path d="M30.7266 62.6124V60.7546H31.1497C31.3798 60.7546 31.5244 60.7086 31.5836 60.6164C31.6452 60.5242 31.6761 60.3764 31.6761 60.1731V54.8868C31.6761 54.6835 31.6465 54.5359 31.5872 54.4437C31.5279 54.3515 31.3821 54.3053 31.1497 54.3053H30.7266V52.4475H36.2034V54.3053H35.7694C35.5655 54.3053 35.4268 54.3456 35.3533 54.4259C35.2799 54.5062 35.2431 54.6599 35.2431 54.8868V60.1731C35.2431 60.3977 35.2799 60.5514 35.3533 60.634C35.4268 60.7144 35.5655 60.7546 35.7694 60.7546H36.2034V62.6124H30.7266Z" fill="black"/>
<path d="M39.3119 62.6124V60.7546H39.9662C40.2081 60.7546 40.3706 60.7144 40.4534 60.634C40.5364 60.5514 40.578 60.3977 40.578 60.1731V54.6528H39.9662C39.7079 54.6528 39.5158 54.6693 39.3901 54.7025C39.2644 54.7356 39.1838 54.7828 39.1482 54.8443C39.1127 54.9058 39.0795 55.0074 39.0486 55.1491L38.8603 56.0037H36.9824L37.082 52.4475H47.6444L47.7476 56.0037H45.8661L45.6778 55.1491C45.6326 54.9388 45.5616 54.8041 45.4643 54.745C45.3695 54.6835 45.1347 54.6528 44.7602 54.6528H44.1484V60.1731C44.1484 60.3575 44.1829 60.5006 44.2516 60.6022C44.3203 60.7038 44.4851 60.7546 44.7459 60.7546H45.4004V62.6124H39.3119Z" fill="black"/>
<path d="M50.2114 52.4475H56.3034L58.7219 59.8825C58.7881 60.1022 58.8474 60.2676 58.8997 60.3789C58.9518 60.4899 59.0323 60.5809 59.1414 60.6517C59.2528 60.7203 59.4034 60.7546 59.593 60.7546H59.8421V62.6124H54.4079V60.7546H54.8312C55.1322 60.7546 55.2828 60.6766 55.2828 60.5206C55.2828 60.4378 55.2437 60.3019 55.1654 60.1129H51.6269L51.5843 60.2902C51.5914 60.3682 51.6269 60.465 51.6908 60.5809C51.7549 60.6967 51.8686 60.7546 52.0323 60.7546H52.2102V62.6124H48.0137V60.7546H48.2768C48.5946 60.7546 48.8102 60.6944 48.9241 60.5737C49.0402 60.4508 49.1635 60.211 49.2938 59.8541L51.0864 54.9896C51.091 54.9731 51.0971 54.953 51.104 54.9294C51.1135 54.9034 51.1231 54.875 51.1326 54.8443C51.1467 54.8159 51.1563 54.7947 51.161 54.7805C51.1658 54.7663 51.1704 54.7533 51.1753 54.7414C51.2131 54.6657 51.2322 54.5938 51.2322 54.5252C51.2322 54.3786 51.1017 54.3053 50.8409 54.3053H50.2114V52.4475ZM53.4476 55.0747L52.3987 57.9076H54.4506L53.5332 55.0747H53.4476Z" fill="black"/>
<path d="M60.5352 62.6124V60.7546H61.0154C61.2571 60.7546 61.4195 60.7144 61.5026 60.634C61.5856 60.5514 61.627 60.3977 61.627 60.1731V54.8868C61.627 54.6599 61.5856 54.5062 61.5026 54.4259C61.4195 54.3456 61.2571 54.3053 61.0154 54.3053H60.5352V52.4475H66.3321V54.3053H65.7062C65.3647 54.3053 65.194 54.4117 65.194 54.6245V60.4035H66.6522C66.7446 60.4035 66.8382 60.4071 66.9331 60.4142C67.0303 60.419 67.1015 60.4213 67.1465 60.4213C67.438 60.4213 67.6503 60.3398 67.7831 60.1767C67.9159 60.0136 68.0344 59.6389 68.1387 59.0528H70.0023V62.6124H60.5352Z" fill="black"/>
<path d="M17.3945 68.8352H21.8543C22.869 68.8352 23.7095 68.8647 24.3757 68.9237C25.042 68.9805 25.6334 69.1058 26.1502 69.2996C26.6695 69.4911 27.0737 69.7912 27.3631 70.2001C27.6523 70.6091 27.7969 71.1515 27.7969 71.8275C27.7969 72.3452 27.65 72.7954 27.356 73.1784C27.0619 73.5589 26.6944 73.8485 26.2534 74.047L27.171 75.529C27.2208 75.6093 27.3156 75.7688 27.4556 76.0076C27.5954 76.2441 27.7151 76.4247 27.8148 76.5502C27.9142 76.6729 28.0376 76.7852 28.1845 76.887C28.3316 76.9861 28.5129 77.0712 28.7286 77.1421V79.0001H23.3409V77.1421C23.5897 77.1045 23.7557 77.0677 23.8388 77.0323C23.9241 76.9968 23.9668 76.9071 23.9668 76.7628C23.9668 76.6424 23.8695 76.4247 23.6751 76.1105L23.0029 75.0077H22.0427V76.5608C22.0427 76.7404 22.0748 76.8822 22.1387 76.9861C22.2051 77.0902 22.3627 77.1421 22.6118 77.1421V79.0001H17.3945V77.1421H17.8783C18.1366 77.1421 18.3003 77.0902 18.3691 76.9861C18.4378 76.8822 18.4723 76.7404 18.4723 76.5608V71.2744C18.4723 71.0948 18.4378 70.9529 18.3691 70.8489C18.3027 70.745 18.1391 70.693 17.8783 70.693H17.3945V68.8352ZM22.0427 70.9412V72.9727H22.6118C23.4178 72.9727 23.8209 72.6099 23.8209 71.8842C23.8209 71.499 23.6881 71.246 23.4226 71.1256C23.157 71.0026 22.8039 70.9412 22.3627 70.9412H22.0427Z" fill="black"/>
<path d="M29.4141 79.0001V77.1421H29.912C30.1799 77.1421 30.3459 77.0974 30.4098 77.0075C30.4763 76.9176 30.5095 76.7687 30.5095 76.5608V71.2744C30.5095 71.0664 30.4775 70.9175 30.4134 70.8276C30.3518 70.7379 30.1894 70.693 29.9262 70.693H29.4141V68.8352H38.4899V72.1006H36.6263C36.5956 71.8806 36.5565 71.6679 36.509 71.4624C36.464 71.2826 36.3881 71.168 36.2814 71.1185C36.1746 71.0664 35.9447 71.0405 35.5914 71.0405H34.0765V72.7423H36.4058V74.9475H34.0765V76.7912H35.5025C35.8842 76.7912 36.1511 76.7534 36.3028 76.6777C36.4544 76.5997 36.5718 76.459 36.6548 76.2558C36.7379 76.0668 36.7864 75.8776 36.8005 75.6885H38.6784L38.593 79.0001H29.4141Z" fill="black"/>
<path d="M45.4997 68.8352V70.693H45.3076C45.1441 70.693 45.0622 70.7662 45.0622 70.9127C45.0622 70.9836 45.1109 71.0748 45.208 71.1858L45.8625 72.0437H46.0224L46.691 71.1858C46.8286 71.0037 46.8973 70.8927 46.8973 70.8525C46.8973 70.7461 46.8049 70.693 46.6199 70.693H46.403V68.8352H51.1365V70.693H50.7275C50.469 70.693 50.2475 70.7626 50.0625 70.9021C49.8799 71.0392 49.6155 71.3229 49.2693 71.7531L48.0033 73.3662L50.1016 76.1529C50.13 76.1908 50.1561 76.2227 50.1798 76.2487C50.2059 76.2748 50.2237 76.2959 50.2332 76.3126C50.2641 76.3432 50.3458 76.445 50.4785 76.6175C50.7512 76.9673 51.0333 77.1421 51.325 77.1421H51.805V79.0001H45.7593V77.1421C46.0794 77.1304 46.2393 77.0476 46.2393 76.8939C46.2393 76.8065 46.1576 76.6518 45.994 76.4295L45.3822 75.6034H45.2223L44.4789 76.5324C44.3723 76.6671 44.319 76.7971 44.319 76.9224C44.319 77.0476 44.4837 77.121 44.8133 77.1421V79.0001H39.7135V77.1421H40.183C40.4674 77.1421 40.7057 77.0819 40.8978 76.9614C41.0897 76.8408 41.3612 76.5573 41.7122 76.1105L43.1809 74.2207L41.2 71.5793C41.1906 71.5651 41.149 71.512 41.0756 71.4198C41.0021 71.3276 40.9274 71.2307 40.8516 71.1291C40.7543 70.9849 40.6523 70.8761 40.5458 70.8029C40.439 70.7296 40.2789 70.693 40.0655 70.693H39.6992V68.8352H45.4997Z" fill="black"/>
</svg>
