<svg width="12" height="12" viewBox="0 0 12 12" fill="none" xmlns="http://www.w3.org/2000/svg">
<path d="M11.78 10.7226L9.45738 8.39896C10.253 7.33568 10.6164 6.01045 10.4742 4.69006C10.3321 3.36966 9.69504 2.15212 8.6913 1.28254C7.68757 0.412961 6.39168 -0.0441026 5.0645 0.00335811C3.73732 0.0508188 2.47739 0.59928 1.53834 1.53834C0.59928 2.47739 0.0508188 3.73732 0.00335811 5.0645C-0.0441026 6.39168 0.412961 7.68757 1.28254 8.6913C2.15212 9.69504 3.36966 10.3321 4.69006 10.4742C6.01046 10.6164 7.33568 10.253 8.39896 9.45738L10.7226 11.781C10.8628 11.9212 11.053 12 11.2513 12C11.4496 12 11.6398 11.9212 11.78 11.781C11.9202 11.6408 11.999 11.4506 11.999 11.2523C11.999 11.054 11.9202 10.8638 11.78 10.7236V10.7226ZM5.27156 9.0089C4.53239 9.0089 3.80981 8.78971 3.19521 8.37904C2.58061 7.96838 2.10159 7.38469 1.81872 6.70178C1.53585 6.01887 1.46184 5.26742 1.60604 4.54245C1.75025 3.81747 2.10619 3.15154 2.62887 2.62887C3.15155 2.10619 3.81747 1.75025 4.54245 1.60604C5.26742 1.46184 6.01887 1.53585 6.70178 1.81872C7.38469 2.10159 7.96838 2.58061 8.37904 3.19521C8.78971 3.80981 9.0089 4.53239 9.0089 5.27156C9.00784 6.26244 8.61375 7.21243 7.91309 7.91309C7.21244 8.61375 6.26244 9.00784 5.27156 9.0089Z" fill="white"/>
</svg>
