<svg width="18" height="14" viewBox="0 0 18 14" fill="none" xmlns="http://www.w3.org/2000/svg">
<path d="M17.2969 8.12109C17.6852 8.12109 18 7.80631 18 7.41797V2.8125C18 1.26169 16.7383 0 15.1875 0H2.8125C1.26169 0 0 1.26169 0 2.8125V10.9336C0 12.4844 1.26169 13.7461 2.8125 13.7461H15.1875C16.7383 13.7461 18 12.4844 18 10.9336C18 10.5453 17.6852 10.2305 17.2969 10.2305C16.9085 10.2305 16.5938 10.5453 16.5938 10.9336C16.5938 11.709 15.9629 12.3398 15.1875 12.3398H2.8125C2.03709 12.3398 1.40625 11.709 1.40625 10.9336V2.96149L7.51482 6.75995C7.97288 7.04475 8.48644 7.18717 9 7.18717C9.51356 7.18717 10.0271 7.04475 10.4852 6.75995L16.5938 2.96149V7.41797C16.5938 7.80631 16.9085 8.12109 17.2969 8.12109ZM9.74257 5.56573C9.28456 5.85053 8.71545 5.85056 8.25743 5.56573L1.99297 1.67034C2.22388 1.5042 2.50696 1.40625 2.8125 1.40625H15.1875C15.493 1.40625 15.7761 1.50423 16.007 1.67038L9.74257 5.56573Z" fill="white"/>
</svg>
