<svg width="18" height="18" viewBox="0 0 18 18" fill="none" xmlns="http://www.w3.org/2000/svg">
<path d="M17.9983 14.5038C17.9732 13.8076 17.6832 13.1578 17.1817 12.6742C16.1997 11.7274 15.377 11.1807 14.5925 10.9541C13.5116 10.6417 12.5104 10.9257 11.6168 11.7984C11.6155 11.7997 11.6142 11.801 11.6128 11.8023L10.6622 12.7459C10.0681 12.411 8.91285 11.6756 7.66473 10.4275L7.57219 10.3351C6.32386 9.08676 5.58856 7.93131 5.25398 7.33787L6.19758 6.3872C6.19891 6.38586 6.20025 6.38453 6.20159 6.38316C7.0742 5.48969 7.35827 4.48851 7.0459 3.40748C6.81918 2.62304 6.2726 1.80031 5.3257 0.818353C4.84216 0.316917 4.19243 0.026877 3.49616 0.00177527C2.79946 -0.0233616 2.13093 0.219147 1.61244 0.684548L1.59226 0.702689C1.58291 0.711091 1.57377 0.719775 1.56484 0.728669C0.532683 1.76083 -0.0083747 3.20579 9.80013e-05 4.9074C0.0145473 7.79803 1.60323 11.1037 4.24977 13.7502C4.74882 14.2493 5.316 14.7431 5.93552 15.2182C6.24367 15.4544 6.68502 15.3962 6.92131 15.088C7.15763 14.7798 7.09934 14.3385 6.79116 14.1022C6.22039 13.6645 5.6999 13.2116 5.24414 12.7559C2.85364 10.3654 1.41894 7.42881 1.40632 4.9004C1.39982 3.58991 1.79402 2.49609 2.54648 1.7358L2.55186 1.73094C3.06293 1.27219 3.83668 1.3001 4.31348 1.79451C6.13384 3.68234 6.00204 4.57359 5.19766 5.39843L3.89427 6.71159C3.68987 6.91754 3.63295 7.2279 3.75097 7.49298C3.78405 7.5673 4.58453 9.33612 6.57808 11.3297L6.67064 11.4221C8.66394 13.4154 10.4328 14.2159 10.5071 14.249C10.7721 14.367 11.0826 14.3101 11.2885 14.1057L12.6017 12.8023C13.4266 11.9979 14.3179 11.8661 16.2056 13.6865C16.7 14.1632 16.7279 14.937 16.2693 15.448L16.2643 15.4535C15.5102 16.1999 14.428 16.5937 13.1318 16.5937C13.1211 16.5937 13.1104 16.5937 13.0997 16.5937C12.0636 16.5885 10.8638 16.3045 9.63015 15.7723C9.27366 15.6185 8.85983 15.7829 8.70606 16.1395C8.55225 16.4961 8.71661 16.9098 9.0732 17.0636C10.4992 17.6787 11.8515 17.9937 13.0927 17.9999C13.1059 18 13.119 18 13.1321 18C14.8166 18 16.2473 17.4593 17.2714 16.4352C17.2803 16.4263 17.289 16.4172 17.2974 16.4078L17.3156 16.3875C17.781 15.869 18.0235 15.2001 17.9983 14.5038Z" fill="white"/>
</svg>
