<svg width="22" height="22" viewBox="0 0 22 22" fill="none" xmlns="http://www.w3.org/2000/svg">
<circle cx="11" cy="11" r="11" fill="#2DA5D9"/>
<path d="M15.1862 6.0811L5.41123 10.093C4.87635 10.2606 4.89339 10.8315 5.28858 10.9704L7.74153 11.799L8.67842 14.9136C8.79221 15.2548 8.88283 15.3825 9.08043 15.3855C9.27803 15.3885 9.3632 15.308 9.57511 15.1041C9.82381 14.8515 10.2027 14.4527 10.8016 13.822L13.3492 15.8626C13.818 16.1433 14.1567 15.9978 14.2732 15.3907L15.8703 6.82335C16.0379 6.08257 15.6346 5.861 15.1862 6.0811ZM8.12583 11.61L13.694 7.82263C13.9666 7.62321 14.0545 7.84552 13.9305 7.99988L9.30937 12.5051L9.07226 14.754L8.12583 11.61Z" fill="white"/>
</svg>
