<svg width="18" height="18" viewBox="0 0 18 18" fill="none" xmlns="http://www.w3.org/2000/svg">
<path d="M17.7896 16.73L13.3166 12.2569C14.5355 10.7661 15.1349 8.86379 14.9906 6.94347C14.8463 5.02315 13.9694 3.23175 12.5414 1.9398C11.1133 0.647857 9.24335 -0.0457868 7.31822 0.00234752C5.39309 0.0504818 3.56011 0.836711 2.19841 2.19841C0.836711 3.56011 0.0504818 5.39309 0.00234752 7.31822C-0.0457868 9.24335 0.647857 11.1133 1.9398 12.5414C3.23175 13.9694 5.02315 14.8463 6.94347 14.9906C8.86379 15.1349 10.7661 14.5355 12.2569 13.3166L16.73 17.7896C16.8713 17.9261 17.0606 18.0017 17.2571 18C17.4536 17.9983 17.6416 17.9195 17.7805 17.7805C17.9195 17.6416 17.9983 17.4536 18 17.2571C18.0017 17.0606 17.9261 16.8713 17.7896 16.73ZM7.51783 13.5129C6.33212 13.5129 5.17303 13.1613 4.18714 12.5026C3.20126 11.8438 2.43286 10.9075 1.9791 9.81204C1.52535 8.71659 1.40663 7.51118 1.63795 6.34825C1.86927 5.18532 2.44025 4.1171 3.27867 3.27867C4.1171 2.44025 5.18532 1.86927 6.34825 1.63795C7.51118 1.40663 8.71659 1.52535 9.81204 1.9791C10.9075 2.43286 11.8438 3.20126 12.5026 4.18714C13.1613 5.17303 13.5129 6.33212 13.5129 7.51783C13.5111 9.10727 12.8789 10.6311 11.755 11.755C10.6311 12.8789 9.10727 13.5111 7.51783 13.5129Z" fill="white"/>
<path d="M9.77694 6.76817H8.27817V5.2694C8.27817 5.07065 8.19922 4.88005 8.05868 4.73951C7.91814 4.59897 7.72754 4.52002 7.52879 4.52002C7.33004 4.52002 7.13943 4.59897 6.99889 4.73951C6.85835 4.88005 6.7794 5.07065 6.7794 5.2694V6.76817H5.28063C5.08188 6.76817 4.89128 6.84712 4.75074 6.98766C4.6102 7.1282 4.53125 7.31881 4.53125 7.51756C4.53125 7.7163 4.6102 7.90691 4.75074 8.04745C4.89128 8.18799 5.08188 8.26694 5.28063 8.26694H6.7794V9.76571C6.7794 9.96446 6.85835 10.1551 6.99889 10.2956C7.13943 10.4361 7.33004 10.5151 7.52879 10.5151C7.72754 10.5151 7.91814 10.4361 8.05868 10.2956C8.19922 10.1551 8.27817 9.96446 8.27817 9.76571V8.26694H9.77694C9.97569 8.26694 10.1663 8.18799 10.3068 8.04745C10.4474 7.90691 10.5263 7.7163 10.5263 7.51756C10.5263 7.31881 10.4474 7.1282 10.3068 6.98766C10.1663 6.84712 9.97569 6.76817 9.77694 6.76817Z" fill="white"/>
</svg>
